<svg xmlns="http://www.w3.org/2000/svg" width="687" height="250" viewBox="0 0 687 250" fill="none"><path d="M490.949 77.5049H505.829V71.711H497.581V52.7014H490.937V77.5049H490.949ZM477.503 77.5049V69.3181H480.296C482.58 69.3181 484.451 69.2088 486.115 68.2127C488.289 66.8887 489.492 64.4351 489.492 61.1312C489.492 57.8273 488.228 55.3737 486.09 53.989C484.183 52.7379 481.766 52.7014 478.705 52.7014H471.284V77.5049H477.515H477.503ZM477.503 63.8764V58.046H478.827C481.523 58.046 483.054 58.5318 483.054 60.9247C483.054 63.3176 481.584 63.8764 478.766 63.8764H477.503ZM455.031 68.2492L457.485 60.0623C457.582 59.6858 457.898 58.5683 458.335 56.7341C458.773 58.5683 459.052 59.6858 459.149 60.0623L461.639 68.2492H455.031ZM445.727 77.5049H452.335L453.598 73.0593H463.036L464.263 77.5049H470.871L462.453 52.7014H454.145L445.727 77.5049Z" fill="#01A6B3"></path><path d="M636.163 65.1517C636.163 61.6413 634.863 58.4224 632.385 55.9566C629.931 53.5273 626.567 52.1426 623.154 52.1426C619.74 52.1426 616.412 53.5273 613.959 55.9566C611.469 58.4224 610.145 61.617 610.145 65.1517C610.145 69.1358 611.809 72.6826 614.882 75.1848C617.226 77.0919 620.19 78.1729 623.154 78.1729C626.555 78.1729 629.895 76.8125 632.385 74.3467C634.839 71.9174 636.163 68.6864 636.163 65.1517ZM623.154 72.4397C619.267 72.4397 616.789 69.2451 616.789 65.1517C616.789 61.0582 619.412 57.8637 623.154 57.8637C626.895 57.8637 629.518 61.1311 629.518 65.1517C629.518 69.1722 626.931 72.4397 623.154 72.4397ZM595.605 77.5048H610.485V71.7109H602.237V52.7013H595.593V77.5048H595.605ZM579.401 77.5048H594.281V71.7109H586.033V52.7013H579.389V77.5048H579.401ZM577.166 65.1517C577.166 61.6413 575.867 58.4224 573.389 55.9566C570.935 53.5273 567.57 52.1426 564.157 52.1426C560.744 52.1426 557.416 53.5273 554.962 55.9566C552.472 58.4224 551.148 61.617 551.148 65.1517C551.148 69.1358 552.812 72.6826 555.885 75.1848C558.23 77.0919 561.193 78.1729 564.157 78.1729C567.558 78.1729 570.899 76.8125 573.389 74.3467C575.842 71.9174 577.166 68.6864 577.166 65.1517ZM564.157 72.4397C560.27 72.4397 557.792 69.2451 557.792 65.1517C557.792 55.4586 570.534 55.5315 570.534 65.1517C570.534 69.2087 567.947 72.4397 564.169 72.4397H564.157ZM538.734 77.5048V69.318H541.528C543.812 69.318 545.682 69.2087 547.346 68.2126C549.52 66.8886 550.723 64.435 550.723 61.1311C550.723 57.8272 549.46 55.3736 547.322 53.9889C545.415 52.7378 542.998 52.7013 539.937 52.7013H532.515V77.5048H538.746H538.734ZM538.734 63.8763V58.0459H540.058C542.755 58.0459 544.285 58.5317 544.285 60.9246C544.285 63.3175 542.815 63.8763 539.997 63.8763H538.734ZM516.263 68.2491L518.716 60.0622C518.814 59.6857 519.129 58.5682 519.567 56.734C520.004 58.5682 520.283 59.6857 520.381 60.0622L522.871 68.2491H516.263ZM506.958 77.5048H513.566L514.83 73.0592H524.268L525.494 77.5048H532.102L523.684 52.7013H515.376L506.958 77.5048Z" fill="#F1802E"></path><path d="M632.289 49.1181H632.933C633.236 49.1181 633.455 49.0695 633.564 48.9845C633.673 48.8873 633.734 48.7658 633.734 48.6201C633.734 48.5229 633.71 48.4379 633.649 48.3528C633.601 48.28 633.516 48.2192 633.431 48.1828C633.333 48.1464 633.151 48.1221 632.896 48.1221H632.289V49.1181ZM631.754 50.9887V47.6726H632.884C633.273 47.6726 633.552 47.6969 633.722 47.7577C633.892 47.8184 634.038 47.9277 634.135 48.0735C634.232 48.2314 634.293 48.3893 634.293 48.5593C634.293 48.8023 634.208 49.0088 634.038 49.191C633.868 49.3732 633.637 49.4703 633.358 49.4946C633.479 49.5432 633.564 49.604 633.637 49.6647C633.771 49.7983 633.929 50.0169 634.123 50.3206L634.524 50.9644H633.88L633.588 50.4421C633.358 50.0291 633.175 49.774 633.03 49.6768C632.933 49.604 632.787 49.5675 632.605 49.5675H632.289V50.9765H631.754V50.9887ZM633.103 46.713C632.677 46.713 632.252 46.8224 631.852 47.041C631.451 47.2596 631.123 47.5755 630.892 47.9884C630.661 48.4014 630.552 48.8266 630.552 49.276C630.552 49.7254 630.661 50.1384 630.892 50.5514C631.123 50.9522 631.439 51.2802 631.839 51.4988C632.24 51.7296 632.665 51.8389 633.115 51.8389C633.564 51.8389 633.977 51.7296 634.39 51.4988C634.791 51.268 635.107 50.9522 635.338 50.5514C635.556 50.1506 635.678 49.7254 635.678 49.276C635.678 48.8266 635.568 48.4014 635.338 47.9884C635.107 47.5755 634.791 47.2596 634.378 47.041C633.965 46.8224 633.552 46.713 633.127 46.713H633.103ZM633.103 46.2029C633.613 46.2029 634.123 46.3365 634.609 46.6037C635.095 46.8709 635.483 47.2475 635.751 47.7455C636.018 48.2435 636.164 48.7537 636.164 49.2881C636.164 49.8226 636.03 50.3328 635.763 50.8186C635.495 51.3045 635.119 51.6932 634.633 51.9604C634.147 52.2276 633.637 52.3612 633.115 52.3612C632.592 52.3612 632.082 52.2276 631.596 51.9604C631.111 51.6932 630.734 51.3045 630.467 50.8186C630.2 50.3328 630.066 49.8226 630.066 49.2881C630.066 48.7537 630.2 48.2314 630.479 47.7455C630.758 47.2475 631.135 46.8709 631.621 46.6037C632.107 46.3365 632.617 46.2029 633.127 46.2029H633.103Z" fill="#606161"></path><path fill-rule="evenodd" clip-rule="evenodd" d="M502.695 50.6972C495.553 38.4291 484.439 29.5741 469.401 29.5741C449.894 29.5741 434.054 45.0976 434.054 64.2043C434.054 83.311 449.881 98.8224 469.401 98.8224C480.503 98.8224 490.403 93.8179 496.889 85.959C499.124 83.9184 501.043 81.5619 502.549 79.0111C495.978 97.8385 477.406 110.034 457.157 108.892C433.957 107.592 415.458 89.1293 414.62 66.245C414.583 65.176 414.583 64.095 414.62 63.0018C415.433 41.0163 432.609 23.0878 454.546 20.6099C475.79 18.2291 495.942 30.7038 502.683 50.6851" fill="#01A6B3"></path><path fill-rule="evenodd" clip-rule="evenodd" d="M469.207 29.5741C482.326 29.149 493.355 36.8257 500.084 46.628C493.804 39.6315 484.099 34.6393 473.58 34.6393C455.688 34.6393 441.185 48.3286 441.185 65.1882C441.185 82.0478 455.992 94.5831 473.896 94.5831C482.824 94.5831 491.193 91.3157 497.035 85.8254C490.075 94.1216 480.467 98.8102 469.438 98.8102C450.04 98.8102 434.359 83.6268 433.994 64.6537C433.994 45.1583 449.809 29.5619 469.207 29.5619" fill="#F1802E"></path><path d="M273.767 112.933L217.739 66.9436L208.373 77.4855L249.869 112.933H273.767Z" fill="#BA2025"></path><path d="M278.932 112.934L262.426 97.9397L249.701 85.3398L213.581 53L51 188.533H74.7298L212.993 73.8738L257.807 112.934H278.932Z" fill="#EE2832"></path><path d="M477.885 140.989H462.807V188.28H443.739V140.989H428.661V123.643H477.885V140.989Z" fill="#231F20"></path><path d="M538.7 123.6V161.946C538.7 181.14 527.654 189.456 510.182 189.456C492.71 189.456 481.539 181.14 481.539 161.946V123.6H500.606V160.266C500.606 167.574 504.302 170.892 510.182 170.892C516.062 170.892 519.674 167.574 519.674 160.266V123.6H538.742H538.7Z" fill="#231F20"></path><path d="M564.193 140.232V151.152H585.907V167.112H564.193V188.28H545.125V123.601H588.553V140.232H564.151H564.193Z" fill="#231F20"></path><path d="M612.242 140.232V151.152H633.956V167.112H612.242V188.28H593.174V123.6H636.602V140.232H612.2H612.242Z" fill="#231F20"></path><path d="M477.885 140.989H462.807V188.28H443.739V140.989H428.661V123.643H477.885V140.989Z" fill="#414042"></path><path d="M538.7 123.6V161.946C538.7 181.14 527.654 189.456 510.182 189.456C492.71 189.456 481.539 181.14 481.539 161.946V123.6H500.606V160.266C500.606 167.574 504.302 170.892 510.182 170.892C516.062 170.892 519.674 167.574 519.674 160.266V123.6H538.742H538.7Z" fill="#414042"></path><path d="M564.193 140.232V151.152H585.907V167.112H564.193V188.28H545.125V123.601H588.553V140.232H564.151H564.193Z" fill="#414042"></path><path d="M612.242 140.232V151.152H633.956V167.112H612.242V188.28H593.174V123.6H636.602V140.232H612.2H612.242Z" fill="#414042"></path><path d="M195.562 167.492H188.548V188.282H169.48V123.602H195.898C213.664 123.602 222.316 132.548 222.316 146.786C222.316 155.018 218.998 160.646 213.118 163.88L226.852 188.282H206.062L195.562 167.492ZM188.548 152.54H195.898C200.224 152.54 203.08 151.07 203.08 146.828C203.08 142.964 200.854 140.99 195.898 140.99H188.548V152.54Z" fill="#EE2832"></path><path d="M290.817 155.942C290.817 175.052 276.999 189.458 257.679 189.458C238.359 189.458 224.542 175.052 224.542 155.942C224.542 136.832 238.359 122.51 257.679 122.51C276.999 122.51 290.817 136.916 290.817 155.942ZM271.749 155.942C271.749 147.542 266.499 140.99 257.679 140.99C248.859 140.99 243.609 147.542 243.609 155.942C243.609 164.342 248.859 170.894 257.679 170.894C266.499 170.894 271.749 164.426 271.749 155.942Z" fill="#EE2832"></path><path d="M358.899 155.942C358.899 175.052 345.081 189.458 325.761 189.458C306.441 189.458 292.624 175.052 292.624 155.942C292.624 136.832 306.441 122.51 325.761 122.51C345.081 122.51 358.899 136.916 358.899 155.942ZM339.873 155.942C339.873 147.542 334.623 140.99 325.803 140.99C316.983 140.99 311.733 147.542 311.733 155.942C311.733 164.342 316.983 170.894 325.803 170.894C334.623 170.894 339.873 164.426 339.873 155.942Z" fill="#EE2832"></path><path d="M382.125 140.234V151.154H403.839V167.114H382.125V188.282H363.057V123.602H406.485V140.234H382.083H382.125Z" fill="#EE2832"></path><path d="M242.686 219.738V219.654C242.686 213.144 247.558 207.726 254.277 207.726C258.435 207.726 260.913 209.196 263.223 211.38L261.459 213.312C259.527 211.464 257.343 210.162 254.235 210.162C249.154 210.162 245.332 214.32 245.332 219.612V219.696C245.332 225.029 249.154 229.187 254.235 229.187C257.385 229.187 259.443 227.969 261.669 225.869L263.391 227.549C260.997 229.985 258.393 231.581 254.193 231.581C247.558 231.581 242.686 226.331 242.686 219.738Z" fill="#231F20"></path><path d="M264.777 222.764V222.68C264.777 217.892 268.515 213.776 273.639 213.776C278.763 213.776 282.459 217.808 282.459 222.596V222.68C282.459 227.468 278.679 231.584 273.555 231.584C268.431 231.584 264.777 227.552 264.777 222.764ZM279.855 222.764V222.68C279.855 219.026 277.125 216.044 273.555 216.044C269.985 216.044 267.339 219.026 267.339 222.638V222.722C267.339 226.376 270.027 229.316 273.597 229.316C277.167 229.316 279.813 226.376 279.813 222.764H279.855Z" fill="#231F20"></path><path d="M285.902 207.182H288.422V231.206H285.902V207.182Z" fill="#231F20"></path><path d="M291.949 222.763V222.679C291.949 217.891 295.687 213.775 300.811 213.775C305.935 213.775 309.631 217.807 309.631 222.595V222.679C309.631 227.467 305.851 231.583 300.727 231.583C295.603 231.583 291.949 227.551 291.949 222.763ZM307.027 222.763V222.679C307.027 219.025 304.297 216.043 300.727 216.043C297.157 216.043 294.511 219.025 294.511 222.637V222.721C294.511 226.375 297.199 229.315 300.769 229.315C304.339 229.315 306.985 226.375 306.985 222.763H307.027Z" fill="#231F20"></path><path d="M312.867 214.154H315.387V218.606C316.647 215.792 319.083 213.734 322.317 213.86V216.59H322.107C318.411 216.59 315.387 219.236 315.387 224.402V231.164H312.867V214.154Z" fill="#231F20"></path><path d="M331.599 229.399C333.909 229.399 335.547 228.433 336.933 227.005L338.487 228.433C336.765 230.365 334.707 231.625 331.515 231.625C326.853 231.625 323.073 228.055 323.073 222.721C323.073 217.765 326.517 213.817 331.221 213.817C336.219 213.817 339.117 217.849 339.117 222.847C339.117 223.099 339.117 223.351 339.117 223.729H325.677C326.055 227.299 328.659 229.399 331.641 229.399H331.599ZM336.555 221.671C336.261 218.563 334.497 215.959 331.137 215.959C328.197 215.959 325.971 218.395 325.635 221.671H336.555Z" fill="#231F20"></path><path d="M341.259 222.637C341.259 217.093 345.291 213.775 349.365 213.775C352.515 213.775 354.531 215.497 355.875 217.387V207.097H358.395V231.121H355.875V227.677C354.489 229.735 352.515 231.457 349.365 231.457C345.291 231.457 341.259 228.223 341.259 222.637ZM355.917 222.679V222.595C355.917 218.689 352.935 216.043 349.785 216.043C346.635 216.043 343.821 218.479 343.821 222.595V222.679C343.821 226.711 346.593 229.273 349.785 229.273C352.977 229.273 355.917 226.627 355.917 222.679Z" fill="#231F20"></path><path d="M370.617 219.738V219.654C370.617 213.144 375.489 207.726 382.209 207.726C386.367 207.726 388.845 209.196 391.155 211.38L389.391 213.312C387.459 211.464 385.275 210.162 382.167 210.162C377.085 210.162 373.263 214.32 373.263 219.612V219.696C373.263 225.029 377.085 229.187 382.167 229.187C385.317 229.187 387.375 227.969 389.601 225.869L391.323 227.549C388.929 229.985 386.325 231.581 382.125 231.581C375.489 231.581 370.617 226.331 370.617 219.738Z" fill="#231F20"></path><path d="M392.709 222.763V222.679C392.709 217.891 396.447 213.775 401.571 213.775C406.695 213.775 410.391 217.807 410.391 222.595V222.679C410.391 227.467 406.611 231.583 401.487 231.583C396.363 231.583 392.709 227.551 392.709 222.763ZM407.829 222.763V222.679C407.829 219.025 405.099 216.043 401.529 216.043C397.959 216.043 395.313 219.025 395.313 222.637V222.721C395.313 226.375 398.001 229.315 401.571 229.315C405.141 229.315 407.787 226.375 407.787 222.763H407.829Z" fill="#231F20"></path><path d="M412.364 226.249V226.165C412.364 222.511 415.304 220.621 419.63 220.621C421.814 220.621 423.284 220.915 424.796 221.335V220.789C424.796 217.765 422.948 216.169 419.798 216.169C417.782 216.169 416.228 216.673 414.632 217.387L413.876 215.329C415.724 214.489 417.53 213.901 420.05 213.901C422.57 213.901 424.292 214.573 425.51 215.791C426.686 216.967 427.274 218.605 427.274 220.789V231.205H424.796V228.685C423.62 230.197 421.688 231.583 418.706 231.583C415.514 231.583 412.364 229.777 412.364 226.291V226.249ZM424.838 224.947V223.351C423.578 222.973 421.94 222.637 419.882 222.637C416.732 222.637 414.926 224.023 414.926 226.081V226.165C414.926 228.307 416.9 229.567 419.168 229.567C422.276 229.567 424.796 227.677 424.796 224.989L424.838 224.947Z" fill="#231F20"></path><path d="M432.061 226.669V216.379H429.709V214.153H432.061V209.029H434.581V214.153H439.957V216.379H434.581V226.333C434.581 228.391 435.715 229.147 437.437 229.147C438.277 229.147 438.991 228.979 439.915 228.559V230.743C439.033 231.205 438.067 231.457 436.849 231.457C434.119 231.457 432.061 230.113 432.061 226.669Z" fill="#231F20"></path><path d="M450.079 229.399C452.389 229.399 454.069 228.433 455.413 227.005L456.967 228.433C455.245 230.365 453.187 231.625 449.995 231.625C445.333 231.625 441.553 228.055 441.553 222.721C441.553 217.765 444.997 213.817 449.701 213.817C454.741 213.817 457.597 217.849 457.597 222.847C457.597 223.099 457.597 223.351 457.597 223.729H444.157C444.535 227.299 447.139 229.399 450.121 229.399H450.079ZM455.035 221.671C454.741 218.563 452.977 215.959 449.617 215.959C446.719 215.959 444.451 218.395 444.115 221.671H455.035Z" fill="#231F20"></path><path d="M459.741 222.636C459.741 217.092 463.773 213.774 467.847 213.774C470.997 213.774 473.013 215.496 474.357 217.386V207.096H476.877V231.12H474.357V227.676C472.971 229.734 470.997 231.456 467.847 231.456C463.773 231.456 459.741 228.222 459.741 222.636ZM474.399 222.678V222.594C474.399 218.688 471.417 216.042 468.267 216.042C465.117 216.042 462.303 218.478 462.303 222.594V222.678C462.303 226.71 465.075 229.272 468.267 229.272C471.459 229.272 474.399 226.626 474.399 222.678Z" fill="#231F20"></path><path d="M489.097 219.738V219.654C489.097 213.144 493.969 207.726 500.689 207.726C504.847 207.726 507.325 209.196 509.635 211.38L507.871 213.312C505.939 211.464 503.755 210.162 500.647 210.162C495.565 210.162 491.743 214.32 491.743 219.612V219.696C491.743 225.029 495.565 229.187 500.647 229.187C503.797 229.187 505.855 227.969 508.081 225.869L509.803 227.549C507.409 229.985 504.805 231.581 500.605 231.581C493.969 231.581 489.097 226.331 489.097 219.738Z" fill="#231F20"></path><path d="M511.19 222.763V222.679C511.19 217.891 514.928 213.775 520.052 213.775C525.176 213.775 528.872 217.807 528.872 222.595V222.679C528.872 227.467 525.092 231.583 519.968 231.583C514.844 231.583 511.19 227.551 511.19 222.763ZM526.31 222.763V222.679C526.31 219.025 523.58 216.043 520.01 216.043C516.44 216.043 513.794 219.025 513.794 222.637V222.721C513.794 226.375 516.482 229.315 520.052 229.315C523.622 229.315 526.268 226.375 526.268 222.763H526.31Z" fill="#231F20"></path><path d="M532.19 207.642H535.088V210.456H532.19V207.642ZM532.358 214.152H534.878V231.161H532.358V214.152Z" fill="#231F20"></path><path d="M539.664 207.182H542.184V231.206H539.664V207.182Z" fill="#231F20"></path><path d="M545.333 229.02L546.593 227.214C548.441 228.6 550.457 229.398 552.473 229.398C554.489 229.398 556.001 228.348 556.001 226.71V226.626C556.001 224.904 553.985 224.274 551.759 223.644C549.113 222.888 546.132 221.964 546.132 218.856V218.772C546.132 215.832 548.567 213.9 551.885 213.9C553.943 213.9 556.253 214.614 557.975 215.79L556.841 217.68C555.287 216.672 553.481 216.042 551.843 216.042C549.827 216.042 548.567 217.092 548.567 218.52V218.604C548.567 220.2 550.667 220.83 552.935 221.544C555.539 222.342 558.395 223.35 558.395 226.416V226.5C558.395 229.734 555.749 231.624 552.347 231.624C549.911 231.624 547.223 230.658 545.333 229.104V229.02Z" fill="#231F20"></path></svg>