<?xml version="1.0" encoding="UTF-8"?>
<svg id="Layer_1" data-name="Layer 1" xmlns="http://www.w3.org/2000/svg" viewBox="0 0 120 80">
  <defs>
    <style>
      .cls-1 {
        fill: #fff;
      }

      .cls-2 {
        fill: none;
        stroke: #fff;
        stroke-miterlimit: 2.61;
        stroke-width: .4px;
      }

      .cls-3 {
        fill: #eb2127;
      }

      .cls-4 {
        fill: #2d368f;
      }

      .cls-5 {
        fill: #fcee1f;
      }

      .cls-6 {
        fill: #231f20;
      }
    </style>
  </defs>
  <g>
    <path class="cls-3" d="M0,46.77c7.51,0,13.6,6.26,13.6,13.99H106.39c0-7.73,6.09-13.99,13.61-13.99V13.99c-7.51,0-13.61-6.27-13.61-13.99H13.6C13.6,7.73,7.51,13.99,0,13.99V46.77Z"/>
    <path class="cls-5" d="M107.42,12.93c-2.21-2.28-3.8-5.11-4.6-8.18l-.12-.46H17.29l-.12,.46c-.8,3.07-2.39,5.9-4.6,8.18-2.22,2.28-4.96,3.92-7.95,4.74l-.45,.12v25.18l.45,.12c2.99,.82,5.73,2.45,7.95,4.73,2.22,2.28,3.81,5.11,4.6,8.18l.12,.46H102.71l.12-.46c1.65-6.26,6.46-11.21,12.55-12.9l.44-.12V17.79l-.45-.12c-2.99-.82-5.74-2.46-7.95-4.74"/>
    <path class="cls-4" d="M114.62,18.27h0v24.24l.44-.6c-6.5,1.81-11.63,7.09-13.39,13.77l.58-.46H17.76l.58,.46c-.85-3.28-2.55-6.3-4.91-8.73-2.37-2.43-5.3-4.18-8.49-5.05l.45,.6V18.27l-.45,.6c3.19-.88,6.13-2.62,8.49-5.06,2.36-2.43,4.06-5.45,4.91-8.73l-.58,.46H102.24l-.58-.46c.85,3.28,2.55,6.3,4.91,8.73,2.36,2.43,5.3,4.18,8.49,5.06l-.45-.6Z"/>
    <path class="cls-6" d="M60.12,66.41c6.25,0,11.38,1.5,16.63,4.66l5.08-13.4c-6.38-3.73-13.8-5.86-21.71-5.86s-15.33,2.14-21.71,5.86l5.08,13.4c5.25-3.16,10.39-4.66,16.63-4.66"/>
    <path class="cls-3" d="M60,65.17c6.1,0,11.11,1.5,16.23,4.66l4.95-13.4c-6.23-3.73-13.46-5.86-21.18-5.86s-14.96,2.14-21.18,5.86l4.95,13.4c5.12-3.16,10.13-4.66,16.23-4.66"/>
    <path class="cls-6" d="M113.75,3.86h0v.86h.35c.21,0,.36-.03,.45-.1,.1-.07,.14-.17,.14-.32s-.05-.26-.15-.34c-.1-.07-.26-.11-.48-.11h-.31Zm-.7-.46h1.14c.41,0,.72,.07,.93,.22,.21,.14,.31,.36,.31,.64,0,.2-.06,.37-.17,.51-.11,.14-.27,.24-.47,.29l.65,1.33h-.79l-.55-1.22h-.35v1.22h-.7V3.4Zm1.09-.7h0c-.3,0-.57,.05-.83,.16-.26,.11-.49,.27-.69,.47-.21,.22-.38,.47-.49,.74-.11,.28-.17,.56-.17,.86s.05,.58,.16,.85c.11,.27,.26,.51,.47,.72,.21,.22,.45,.39,.71,.5,.27,.12,.54,.17,.83,.17s.55-.06,.82-.17c.27-.11,.51-.28,.73-.49,.2-.2,.36-.44,.47-.71,.11-.27,.17-.55,.17-.84,0-.32-.05-.61-.16-.88-.1-.27-.26-.51-.47-.73-.21-.22-.45-.39-.71-.5-.26-.11-.55-.17-.85-.17Zm0-.45c.36,0,.7,.07,1.02,.21,.32,.14,.61,.34,.86,.6,.24,.25,.43,.54,.55,.86,.13,.32,.19,.67,.19,1.03s-.07,.71-.2,1.04c-.13,.33-.32,.62-.57,.86-.25,.25-.54,.45-.86,.58-.32,.14-.65,.2-.99,.2s-.68-.07-1-.21c-.32-.14-.6-.34-.86-.6-.24-.25-.43-.54-.56-.86-.13-.32-.19-.66-.19-1.01,0-.25,.03-.49,.1-.72,.06-.23,.16-.46,.28-.68,.24-.41,.55-.73,.94-.96,.39-.23,.82-.34,1.29-.34Z"/>
    <path class="cls-2" d="M17.63,31.27h0l.06-4.79c4.1-.13,7.41,1.13,7.29,3.53-.67,4.35-7.35,1.26-7.35,1.26Zm12.37-2.59c-.06-4.79-6.43-7.75-13.79-6.62l-.55,16.07,3.55,.13s-1.47-2.4-1.35-5.3c1.47-.06,2.76,.19,4.53,1.95,.86,1.14,5.88,6.18,5.88,6.18l2.45-2.65-7.48-4.41c2.82-.88,6.74-1.7,6.74-5.36Z"/>
    <path class="cls-1" d="M17.63,31.27h0l.06-4.79c4.1-.13,7.41,1.13,7.29,3.53-.67,4.35-7.35,1.26-7.35,1.26m12.37-2.59c-.06-4.79-6.43-7.75-13.79-6.62l-.55,16.07,3.55,.13s-1.47-2.4-1.35-5.3c1.47-.06,2.76,.19,4.53,1.95,.86,1.14,5.88,6.18,5.88,6.18l2.45-2.65-7.47-4.41c2.82-.88,6.74-1.7,6.74-5.36Z"/>
    <path class="cls-2" d="M36.45,33.1h0c-.37-1.95,2.33-6.3,2.33-6.3l2.94,6.3h-5.27Zm1.04-8.88l.37,1.2-6.74,16.2,4.47-2.46s-.92-2.58-.18-3.65h7.54l1.84,3.65h5.27l-8.58-17.2c-.92,.69-1.78,1.7-3.98,2.27Z"/>
    <path class="cls-1" d="M36.45,33.1h0c-.37-1.95,2.33-6.3,2.33-6.3l2.94,6.3h-5.27Zm1.04-8.88l.37,1.2-6.74,16.2,4.47-2.46s-.92-2.58-.18-3.65h7.54l1.84,3.65h5.27l-8.58-17.2c-.92,.69-1.78,1.7-3.98,2.27Z"/>
    <path class="cls-2" d="M59.79,33.48c-1.9,2.96-5.76,3.09-8.39,1.45v6.24c4.1,.38,11.09-1.64,11.33-6.74v-12.66h-3.92c1.84,2.84,3.55,7.44,.98,11.72Z"/>
    <path class="cls-1" d="M59.79,33.48c-1.9,2.96-5.76,3.09-8.39,1.45v6.24c4.1,.38,11.09-1.64,11.33-6.74v-12.66h-3.92c1.84,2.84,3.55,7.44,.98,11.72"/>
    <path class="cls-2" d="M68.56,33.1h0c-.37-1.95,2.33-6.3,2.33-6.3l2.94,6.3h-5.27Zm1.04-8.88l.37,1.2-6.74,16.2,4.47-2.46s-.92-2.58-.18-3.65h7.54l1.84,3.65h5.27l-8.58-17.2c-.92,.69-1.78,1.7-3.98,2.27Z"/>
    <path class="cls-1" d="M68.56,33.1h0c-.37-1.95,2.33-6.3,2.33-6.3l2.94,6.3h-5.27Zm1.04-8.88l.37,1.2-6.74,16.2,4.47-2.46s-.92-2.58-.18-3.65h7.54l1.84,3.65h5.27l-8.58-17.2c-.92,.69-1.78,1.7-3.98,2.27Z"/>
    <path class="cls-2" d="M96.72,31.65l-12.74-9.75v19.58l3.27-2.44c-1.39-2.02-2.79-7.48-1.15-9.24l12.5,8.74V22.15h-2.7c1.31,3.03,1.56,8.58,.82,9.5Z"/>
    <path class="cls-1" d="M96.72,31.65l-12.74-9.75v19.58l3.27-2.44c-1.39-2.02-2.79-7.48-1.15-9.24l12.5,8.74V22.15h-2.7c1.31,3.03,1.56,8.58,.82,9.5"/>
    <path class="cls-2" d="M103.58,23.66c.65,3.53-.82,11.86-2.78,13.79h4.82v-15.38s-1.14,1.25-2.04,1.59Z"/>
    <path class="cls-1" d="M103.58,23.66c.65,3.53-.82,11.86-2.78,13.79h4.82v-15.38s-1.14,1.25-2.04,1.59"/>
    <path class="cls-1" d="M72.74,56.81v2.18c.23,.02,.46,.04,.69,.05,.5,.03,.84,.02,1.01-.06,.17-.07,.3-.19,.4-.36,.1-.17,.14-.36,.14-.59,0-.28-.07-.51-.2-.7-.13-.19-.31-.31-.51-.36-.15-.04-.46-.08-.91-.11-.21-.01-.41-.03-.61-.05m-1.27,6.28v-7.7c.68,.07,1.36,.13,2.04,.18,.77,.05,1.28,.11,1.51,.2,.36,.13,.66,.38,.91,.77,.24,.39,.37,.89,.37,1.5,0,.47-.07,.87-.21,1.19-.14,.32-.32,.57-.53,.75-.21,.18-.43,.3-.66,.35-.3,.06-.75,.08-1.32,.04-.28-.02-.55-.04-.83-.06v2.9c-.42-.03-.85-.08-1.27-.12Zm-6.36-8.42c.42,.04,.85,.09,1.27,.14v4.17c0,.66,.01,1.09,.05,1.29,.05,.32,.19,.59,.39,.8,.2,.21,.48,.34,.84,.38,.36,.04,.63-.01,.82-.17,.18-.16,.29-.37,.33-.62,.04-.26,.05-.69,.05-1.3v-4.26c.42,.05,.85,.1,1.27,.15v4.04c0,.93-.03,1.57-.1,1.95-.07,.37-.19,.68-.38,.92-.18,.24-.43,.42-.74,.54-.31,.12-.71,.15-1.21,.09-.6-.07-1.06-.21-1.37-.41-.31-.2-.56-.45-.74-.74-.18-.29-.3-.59-.36-.89-.08-.45-.12-1.1-.12-1.97v-4.11Zm-5.78,3.59c0,.87,.16,1.53,.49,1.97,.33,.45,.75,.67,1.25,.68,.51,0,.92-.19,1.25-.63,.16-.21,.28-.48,.36-.81,.08-.33,.12-.72,.12-1.16,0-.88-.16-1.55-.47-2-.31-.45-.74-.68-1.26-.69-.52-.01-.95,.21-1.27,.66-.32,.44-.48,1.11-.48,2Zm-1.31,.11c0-.78,.09-1.45,.29-1.99,.14-.4,.34-.76,.59-1.08,.25-.32,.52-.56,.82-.72,.39-.21,.84-.32,1.36-.3,.93,.02,1.67,.42,2.23,1.16,.28,.37,.49,.81,.62,1.31,.14,.5,.21,1.07,.21,1.69s-.07,1.17-.21,1.64c-.14,.47-.34,.88-.62,1.21-.55,.66-1.29,.96-2.22,.95-.94-.02-1.68-.34-2.23-1.02-.28-.34-.49-.74-.62-1.22-.14-.47-.2-1.01-.2-1.63Zm-4.82-.18c.31-.04,.62-.07,.94-.11,.61-.07,.99-.14,1.14-.22,.15-.08,.27-.2,.36-.36,.09-.16,.13-.36,.13-.59,0-.26-.06-.46-.17-.61-.11-.15-.27-.24-.48-.25-.1,0-.41,.02-.93,.08-.33,.04-.66,.08-.99,.12v1.95Zm-1.27,4.6v-7.7c.89-.11,1.78-.21,2.67-.31,.67-.07,1.16-.05,1.46,.06,.31,.11,.55,.33,.73,.67,.18,.34,.27,.74,.27,1.19,0,.58-.14,1.07-.41,1.47-.28,.4-.69,.68-1.24,.83,.27,.17,.5,.36,.68,.58,.18,.22,.42,.61,.72,1.19,.25,.48,.51,.96,.77,1.44-.51,.04-1.01,.08-1.52,.13-.31-.53-.62-1.06-.92-1.58-.33-.56-.55-.92-.67-1.06-.12-.14-.25-.23-.38-.28-.14-.04-.35-.05-.64-.01-.09,0-.17,.02-.26,.03v3.21c-.42,.05-.85,.1-1.27,.15Zm-3.92-2.41v-1.3c.91-.08,1.82-.17,2.74-.28v3.07c-.26,.35-.65,.67-1.16,.96-.5,.29-1.02,.46-1.53,.5-.66,.05-1.24-.08-1.72-.39-.49-.32-.86-.79-1.1-1.41-.12-.31-.22-.64-.28-.98-.06-.34-.09-.7-.09-1.06,0-.4,.03-.78,.1-1.14,.07-.36,.17-.69,.31-1.01,.27-.63,.68-1.12,1.21-1.48,.41-.28,.91-.44,1.51-.49,.78-.07,1.39,.07,1.83,.43,.44,.35,.72,.88,.85,1.57-.42,.14-.84,.29-1.26,.43-.09-.37-.26-.65-.5-.85-.25-.2-.55-.28-.92-.25-.55,.05-1,.29-1.32,.74-.33,.45-.49,1.09-.49,1.94,0,.46,.04,.86,.12,1.2,.08,.34,.21,.62,.38,.84,.33,.44,.76,.64,1.3,.59,.27-.02,.54-.11,.8-.26,.27-.15,.5-.33,.69-.53v-.98c-.49,.05-.97,.09-1.46,.13Z"/>
  </g>
  <path class="cls-6" d="M74.37,78.6l.95-.1c.03,.22,.11,.4,.24,.52,.13,.13,.29,.19,.46,.19,.2,0,.37-.08,.5-.25,.14-.17,.21-.42,.21-.75,0-.31-.07-.55-.2-.71-.14-.16-.31-.24-.53-.24-.27,0-.52,.12-.73,.37l-.77-.11,.48-2.64h2.51v.91h-1.79l-.15,.87c.21-.11,.43-.16,.65-.16,.42,0,.78,.16,1.07,.47,.29,.31,.44,.72,.44,1.23,0,.42-.12,.79-.35,1.12-.32,.45-.77,.67-1.34,.67-.46,0-.83-.13-1.12-.38-.29-.25-.46-.59-.52-1.02m-3.85-2.81v-.9h3.25v.71c-.27,.27-.54,.66-.82,1.17-.28,.51-.49,1.05-.63,1.62-.15,.57-.22,1.08-.21,1.53h-.91c.02-.7,.16-1.42,.42-2.16,.27-.73,.62-1.39,1.07-1.96h-2.16Zm-1.67,.8c0-.31-.07-.56-.21-.73-.14-.17-.3-.26-.49-.26s-.32,.07-.43,.21c-.12,.14-.17,.37-.17,.7s.06,.57,.19,.72c.13,.15,.28,.23,.47,.23s.33-.07,.46-.22c.12-.15,.19-.36,.19-.65Zm-2.13,2.13l.92-.1c.02,.19,.08,.34,.17,.43,.09,.09,.22,.14,.37,.14,.19,0,.36-.09,.49-.28,.14-.19,.22-.57,.26-1.16-.24,.28-.54,.43-.89,.43-.39,0-.72-.15-1.01-.46-.28-.31-.42-.71-.42-1.21s.15-.93,.45-1.25c.3-.32,.68-.47,1.14-.47,.5,0,.91,.2,1.23,.6,.32,.4,.48,1.06,.48,1.97s-.17,1.6-.5,2.01c-.33,.41-.77,.62-1.31,.62-.39,0-.7-.11-.93-.32-.24-.21-.39-.53-.46-.95Zm-1.45,1.18h-.95v-3.68c-.35,.33-.75,.58-1.22,.74v-.89c.25-.08,.52-.24,.8-.47,.29-.23,.49-.5,.6-.81h.77v5.11Zm-5.98-2.15c0-.28-.08-.5-.21-.65-.13-.15-.3-.22-.49-.22-.21,0-.38,.08-.51,.23-.13,.16-.2,.37-.2,.63h1.41Zm-.06,.99l.95,.16c-.12,.36-.31,.63-.57,.81-.26,.19-.59,.28-.98,.28-.62,0-1.08-.21-1.38-.63-.24-.34-.35-.76-.35-1.27,0-.61,.16-1.09,.46-1.44,.31-.35,.7-.52,1.18-.52,.53,0,.95,.18,1.26,.54,.31,.36,.45,.92,.44,1.67h-2.37c0,.29,.08,.51,.23,.67,.14,.16,.33,.24,.54,.24,.15,0,.27-.04,.37-.12,.1-.08,.18-.22,.23-.4Zm-2.79-1.43l-.93,.17c-.03-.19-.1-.33-.21-.43-.11-.1-.26-.14-.43-.14-.24,0-.42,.08-.57,.25-.14,.17-.21,.45-.21,.84,0,.44,.07,.75,.21,.93,.14,.18,.33,.27,.57,.27,.18,0,.33-.05,.44-.16,.12-.11,.2-.29,.24-.54l.93,.16c-.1,.44-.28,.77-.56,1-.27,.23-.64,.34-1.1,.34-.52,0-.94-.17-1.25-.51-.31-.34-.47-.81-.47-1.41s.16-1.08,.47-1.42c.31-.34,.73-.51,1.27-.51,.44,0,.78,.1,1.04,.29,.26,.19,.44,.49,.55,.88Zm-4.08,2.59h-.95v-1.88c0-.4-.02-.65-.06-.77-.04-.12-.11-.21-.2-.27-.09-.07-.2-.1-.33-.1-.17,0-.31,.05-.45,.14-.13,.09-.22,.22-.27,.37-.05,.15-.07,.43-.07,.85v1.67h-.95v-3.69h.88v.54c.31-.41,.71-.62,1.19-.62,.21,0,.4,.04,.58,.12,.18,.08,.31,.18,.39,.3,.09,.12,.15,.26,.19,.41,.04,.15,.05,.37,.05,.65v2.29Zm-5.18,0v-3.69h.95v3.69h-.95Zm0-4.18v-.9h.95v.9h-.95Zm-4.86,2.54l.97-.1c.06,.34,.18,.58,.35,.74,.18,.16,.42,.24,.72,.24,.32,0,.56-.07,.72-.21,.16-.14,.24-.3,.24-.49,0-.12-.03-.22-.1-.31-.07-.08-.19-.16-.36-.22-.12-.04-.38-.12-.8-.22-.53-.14-.91-.31-1.12-.51-.3-.28-.45-.62-.45-1.03,0-.26,.07-.5,.21-.73,.14-.23,.35-.4,.62-.52,.27-.12,.59-.18,.97-.18,.62,0,1.08,.14,1.4,.42,.31,.28,.48,.66,.49,1.13l-1,.04c-.04-.26-.13-.45-.27-.57-.14-.11-.35-.17-.63-.17s-.51,.06-.68,.18c-.1,.08-.16,.18-.16,.32,0,.12,.05,.22,.15,.31,.13,.11,.43,.22,.91,.34,.48,.12,.84,.24,1.07,.37,.23,.13,.41,.3,.55,.52,.13,.22,.2,.49,.2,.81,0,.29-.08,.56-.24,.82-.16,.25-.38,.44-.67,.57-.29,.12-.65,.19-1.08,.19-.62,0-1.1-.15-1.44-.45-.33-.3-.53-.73-.6-1.3Z"/>
</svg>